<svg width="17" height="18" viewBox="0 0 17 18" fill="none" xmlns="http://www.w3.org/2000/svg">
<path fill-rule="evenodd" clip-rule="evenodd" d="M0.93808 4.75532C1.29218 3.98231 1.79073 3.3065 2.3778 2.6955C3.70569 1.31611 5.31314 0.427371 7.21413 0.126497C9.87457 -0.294726 12.2555 0.330165 14.3149 2.08912C14.4453 2.20021 14.4779 2.26501 14.3335 2.40388C13.6067 3.11209 12.8938 3.82956 12.1716 4.5424C12.0971 4.61646 12.0458 4.70441 11.9153 4.58406C10.1029 2.93619 7.14424 2.95471 5.21996 4.73218C4.55834 5.34318 4.08775 6.07454 3.78024 6.91236C3.73365 6.88458 3.68705 6.85681 3.64512 6.82441C2.74588 6.13934 1.84198 5.44502 0.93808 4.75532Z" fill="#D7282A"/>
<path fill-rule="evenodd" clip-rule="evenodd" d="M3.76143 10.2867C4.02235 10.944 4.34384 11.5597 4.82375 12.0874C6.04448 13.4251 7.55408 14.0037 9.36654 13.8185C10.2099 13.7306 10.974 13.4482 11.6915 13.0131C11.7614 13.0733 11.8266 13.1381 11.8965 13.1936C12.7352 13.8463 13.5739 14.4943 14.4125 15.1424C13.4853 16.0172 12.3951 16.5958 11.165 16.906C8.27161 17.6373 5.59719 17.1744 3.22561 15.3136C2.24251 14.5453 1.47372 13.5964 0.928589 12.4715C1.87442 11.7448 2.8156 11.0135 3.76143 10.2867Z" fill="#45AC43"/>
<path fill-rule="evenodd" clip-rule="evenodd" d="M14.4171 15.1424C13.5785 14.4943 12.7398 13.8417 11.9011 13.1936C11.8266 13.1381 11.7613 13.0733 11.6961 13.0131C12.2645 12.5826 12.7398 12.0735 13.052 11.4254C13.1778 11.1662 13.2616 10.8977 13.3455 10.6246C13.4014 10.4349 13.3828 10.3608 13.1498 10.3654C11.752 10.3793 10.3542 10.3701 8.95645 10.3701C8.65825 10.3701 8.65825 10.3701 8.65825 10.0646C8.65825 9.12491 8.66291 8.18063 8.65359 7.24098C8.65359 7.06045 8.68621 6.99102 8.89122 6.99102C11.4678 7.00028 14.0444 6.99565 16.621 6.99565C16.7607 6.99565 16.8493 7.00491 16.8726 7.17154C17.1941 9.4119 16.9378 11.5504 15.7543 13.5269C15.3956 14.1333 14.9623 14.6841 14.4171 15.1424Z" fill="#5D7FBE"/>
<path fill-rule="evenodd" clip-rule="evenodd" d="M3.76153 10.2868C2.8157 11.0135 1.87453 11.7448 0.928692 12.4716C0.467424 11.6199 0.201845 10.7034 0.0760443 9.74981C-0.138283 8.09732 0.0993407 6.50964 0.802892 4.99601C0.840166 4.91269 0.891418 4.834 0.933352 4.75531C1.83725 5.44501 2.74115 6.13933 3.64505 6.82902C3.68699 6.86143 3.73358 6.8892 3.78017 6.91697C3.40277 8.03715 3.42141 9.16195 3.76153 10.2868Z" fill="#F4C300"/>
</svg>
